<svg xmlns="http://www.w3.org/2000/svg" xmlns:xlink="http://www.w3.org/1999/xlink" version="1.1" id="Слой_1" x="0px" y="0px" viewBox="0 0 26 26" style="enable-background:new 0 0 26 26;/* background: red; */" xml:space="preserve">
<style type="text/css">
	.st0{fill:#ffffff;}
	.st1{display:none;fill:#54B040;}
</style>
<path class="st0" d="M25.7,5.6c-0.1-0.2-0.4-0.3-0.6-0.4L9.1,4.5c-0.5,0-0.8,0.3-0.9,0.8c0,0.5,0.3,0.8,0.8,0.9l14.9,0.6L21,15.9H8  L5.6,3.2C5.6,2.9,5.4,2.6,5.1,2.5L1.3,1c-0.4-0.2-0.9,0-1.1,0.5C0,1.9,0.2,2.4,0.6,2.6l3.4,1.3l2.4,13c0.1,0.4,0.4,0.7,0.8,0.7h0.4  L6.8,20c-0.1,0.2,0,0.4,0.1,0.6C7,20.9,7.2,21,7.4,21H8c-0.4,0.4-0.6,1-0.6,1.6c0,1.4,1.1,2.5,2.5,2.5c1.4,0,2.5-1.1,2.5-2.5  c0-0.6-0.2-1.2-0.6-1.6h5.4c-0.4,0.4-0.6,1-0.6,1.6c0,1.4,1.1,2.5,2.5,2.5s2.5-1.1,2.5-2.5c0-0.6-0.2-1.2-0.6-1.6h0.8  c0.4,0,0.7-0.3,0.7-0.7c0-0.4-0.3-0.7-0.7-0.7H8.4l0.7-2.1h12.4c0.4,0,0.7-0.2,0.8-0.6l3.4-10.7C25.9,6,25.8,5.8,25.7,5.6z   M9.9,23.7c-0.6,0-1.1-0.5-1.1-1.1c0-0.6,0.5-1.1,1.1-1.1c0.6,0,1.1,0.5,1.1,1.1C11,23.2,10.5,23.7,9.9,23.7z M19,23.7  c-0.6,0-1.1-0.5-1.1-1.1c0-0.6,0.5-1.1,1.1-1.1c0.6,0,1.1,0.5,1.1,1.1C20.1,23.2,19.6,23.7,19,23.7z"/>
<path class="st1" d="M25.7,5.6c-0.1-0.2-0.4-0.3-0.6-0.4L5.9,4.5L5.6,3.2C5.6,2.9,5.4,2.6,5.1,2.5L1.3,1c-0.4-0.2-0.9,0-1.1,0.5  C0,1.9,0.2,2.4,0.6,2.6l3.4,1.3l2.4,13c0.1,0.4,0.4,0.7,0.8,0.7h0.4L6.8,20c-0.1,0.2,0,0.4,0.1,0.6C7,20.9,7.2,21,7.4,21H8  c-0.4,0.4-0.6,1-0.6,1.6c0,1.4,1.1,2.5,2.5,2.5c1.4,0,2.5-1.1,2.5-2.5c0-0.6-0.2-1.2-0.6-1.6h5.4c-0.4,0.4-0.6,1-0.6,1.6  c0,1.4,1.1,2.5,2.5,2.5s2.5-1.1,2.5-2.5c0-0.6-0.2-1.2-0.6-1.6h0.8c0.4,0,0.7-0.3,0.7-0.7c0-0.4-0.3-0.7-0.7-0.7H8.4l0.7-2.1h12.4  c0.4,0,0.7-0.2,0.8-0.6l3.4-10.7C25.9,6,25.8,5.8,25.7,5.6z M9.9,23.7c-0.6,0-1.1-0.5-1.1-1.1c0-0.6,0.5-1.1,1.1-1.1  c0.6,0,1.1,0.5,1.1,1.1C11,23.2,10.5,23.7,9.9,23.7z M19,23.7c-0.6,0-1.1-0.5-1.1-1.1c0-0.6,0.5-1.1,1.1-1.1c0.6,0,1.1,0.5,1.1,1.1  C20.1,23.2,19.6,23.7,19,23.7z"/>
</svg>